<svg version="1.1" id="Layer_1" xmlns="http://www.w3.org/2000/svg" x="0" y="0" viewBox="0 0 1920 1080" xml:space="preserve"><style>.st0{fill:#d72678}.st1{fill:#f7b521}.st2{fill:#0dbf9e}.st3{fill:#077bc5}.st4{fill:#b51d31}</style><path class="st0" d="M0 0h495.89v543.07H0z"/><path class="st1" d="M495.89 0h491.12v271.54H495.89z"/><path class="st2" d="M495.89 269.66h245.56v273.41H495.89z"/><path class="st3" d="M741.45 269.66h245.56v273.41H741.45z"/><path class="st1" d="M495.89 543.07h491.12V1080H495.89z"/><path class="st3" d="M0 811.54h495.89V1080H0z"/><path class="st4" d="M247.67 543.07h248.22v270.32H247.67z"/><path class="st2" d="M0 543.07h247.67v270.32H0zM987.02 0h228.57v1080H987.02z"/><path class="st4" d="M1215.58 0h383.28v135.77h-383.28z"/><path class="st0" d="M1215.58 135.77h383.28V1080h-383.28z"/><path class="st4" d="M1598.87 579.82H1920V1080h-321.13z"/><path class="st2" d="M1598.87 314.04h160.57v265.79h-160.57z"/><path class="st1" d="M1759.43 314.04H1920v265.79h-160.57z"/><path class="st3" d="M1598.87 0H1920v314.04h-321.13zM987.02 658.8h228.57v171.12H987.02z"/></svg>