<svg version="1.1" id="Layer_1" xmlns="http://www.w3.org/2000/svg" x="0" y="0" viewBox="0 0 5333.33 3000" xml:space="preserve"><style>.st1{fill-rule:evenodd;clip-rule:evenodd;fill:#fed9b7}</style><path fill-rule="evenodd" clip-rule="evenodd" fill="#fdfcdc" d="M0 0h5333.33v2999.99H0z"/><path class="st1" d="M230.47 1318.84c-76.34-6.55-153.32-10.15-230.47-10.65v1691.8h1210.05c67.67-123.03 90.59-266.39 100.93-406.82 25.68-348.71-32.39-731.08-282.46-975.47-207.32-202.62-509.22-274.06-798.05-298.86z"/><path class="st1" d="M0 2408.56c58.73-20.75 119.02-37.8 179.2-52.89 305.43-76.6 621.41-110.95 936.17-101.78 344.05 10.03 719.62 63.99 1005.89-127.12 285.07-190.31 381.56-560.99 423.08-901.22 41.53-340.22 56.66-702.95 249.76-986.13 62.54-91.71 140.79-169.9 227.25-239.42H0v2408.56z"/><path d="M0 2467.26c36.87 13.05 74.78 23.04 112.91 29.8 184.74 32.74 387.1-4.19 530.26-125.46 224.09-189.8 250.68-517.21 331.8-799.45 20.14-70.05 45.71-140.93 94.64-194.94 52.98-58.49 127.94-91.41 201.35-120.42 80.83-31.96 165.93-61.7 252.56-54.49 151.41 12.6 268.16 131.52 385.92 227.53 230.91 188.26 516.1 309.14 811.94 344.18 140.65 16.65 285.91 13.87 420.33-30.71 163.85-54.34 302.27-167.59 418.61-295.12 296.95-325.52 471.26-802.04 318.85-1215.46C3848.41 149.27 3805.95 72 3755.16 0H0v2467.26z" fill-rule="evenodd" clip-rule="evenodd" fill="#f07167"/><path d="M4963.97 348.02c-95.43 174.32-270.29 298.25-349.67 480.44-71.89 164.99-51.58 366.75 51.75 514.11 110.94 158.21 298.58 243.16 482.91 301.11 59.23 18.62 121.53 34.7 184.37 45.16V0h-279.59c-6.06 122.16-30.9 240.49-89.77 348.02zM0 1065.35c79.43 30.13 165.33 39.7 247.48 19.21 90.51-22.58 168.85-78.62 240.14-138.8 158.17-133.53 297.63-295.79 484.64-384.54 236.78-112.37 511.59-90.06 773.46-100.94 261.86-10.88 552.11-76.02 696.64-294.66 33.82-51.15 57.06-107.07 73.41-165.62H0v1065.35z" fill="#0081a7" fill-rule="evenodd" clip-rule="evenodd"/><path class="st1" d="M5333.33 2160.64c-100.78 21.79-203.66 52.01-280.67 120.35-125.94 111.76-153.16 297.71-146.13 465.94 3.55 85 13.67 169.23 27.33 253.06h399.48v-839.35z"/><path d="M4816.54 698.93c0-66.7-54.07-120.77-120.77-120.77-66.7 0-120.77 54.07-120.77 120.77 0 66.7 54.07 120.77 120.77 120.77 66.7 0 120.77-54.07 120.77-120.77zm267.98 2301.06c-17.84-64.87-77.25-112.54-147.79-112.54-70.55 0-129.95 47.66-147.79 112.54h295.58zM1012.84 619.18c0-84.66-68.63-153.28-153.28-153.28-84.66 0-153.28 68.62-153.28 153.28s68.63 153.28 153.28 153.28 153.28-68.63 153.28-153.28zm4035.08 476.26c0 180.42 120.51 332.67 285.41 380.72V714.73c-164.9 48.04-285.41 200.3-285.41 380.71z" fill="#00afb9" fill-rule="evenodd" clip-rule="evenodd"/><path d="M0 2481.8c164.9-48.05 285.41-200.3 285.41-380.72 0-180.42-120.5-332.67-285.41-380.71" fill-rule="evenodd" clip-rule="evenodd" fill="none" stroke="#0081a7" stroke-width="4" stroke-miterlimit="10"/></svg>