<svg xmlns="http://www.w3.org/2000/svg" viewBox="1744 -869 4000 2250"><path fill="#e6e6e6" d="M2749.7-869H5744v2250H2749.7z"/><path fill="#999" d="M1757.6-869h992.2v2250h-992.2z"/><path d="M1744.2 456l3345.5 7L5259 605.2 5097.1 751l-2347.7-5.7-1005.2 413.1V456z" fill="#a00"/><path d="M1744.2-205.4l1005.2 370.5 1788.2 28.4 158.2 128L4537.6 463l-1788.2.7-1005.2-7.7v-661.4z" fill="#ff2a2a"/><path d="M1743.9-858.7l1005.5 755.3 2132.5 1.2 180.7 145-186.5 149.3-2126.7 1.4-1005.2-399-.3-653.2z" fill="#f60"/><path d="M1742.8 1150.7L2748 737.6l1655 7.7 200.2 177.9-195.8 168.3H2748L2320 1381h-575.8l-1.4-230.3z" fill="#500"/><path opacity=".241" fill="#500" d="M1744.2-869h1005.5v2250H1744.2z"/></svg>