<svg xmlns="http://www.w3.org/2000/svg" style="margin:auto;background:#adf6e6;z-index:1;position:relative" width="1600" height="781" preserveAspectRatio="xMidYMid" display="block"><linearGradient id="a" x1="0" x2="1" y1="0" y2="0"><stop stop-color="#f0f" offset="0"/><stop stop-color="#0ff" offset="1"/></linearGradient><path d="M1385 391c0 185-250 432-426 489s-552 25-661-125-99-572 10-722 486-224 662-167 415 340 415 525" fill="url(#a)" opacity=".4"><animate attributeName="d" dur="10s" repeatCount="indefinite" keyTimes="0;0.3333333333333333;0.6666666666666666;1" keySplines="0.3 0.1 0.7 0.9;0.3 0.1 0.7 0.9;0.3 0.1 0.7 0.9" begin="-4s" values="M 1385 391 C 1385 576 1135 823 959 880 C 783 937 407 905 298 755 C 189 605 199 183 308 33 C 417 -117 794 -191 970 -134 C 1146 -77 1385 206 1385 391;M 1346 391 C 1346 557 1086 734 928 785 C 770 836 454 848 356 713 C 258 578 304 237 402 102 C 500 -33 782 -91 940 -40 C 1098 11 1346 225 1346 391;M 1469 391 C 1469 570 1105 750 935 805 C 765 860 473 849 368 705 C 263 561 170 154 275 9 C 380 -136 784 -137 954 -82 C 1124 -27 1469 212 1469 391;M 1385 391 C 1385 576 1135 823 959 880 C 783 937 407 905 298 755 C 189 605 199 183 308 33 C 417 -117 794 -191 970 -134 C 1146 -77 1385 206 1385 391"/></path><path d="M1421 391c0 186-305 369-482 427s-480 50-589-101-116-507-6-658S770-119 947-61s474 266 474 452" fill="url(#a)" opacity=".4"><animate attributeName="d" dur="10s" repeatCount="indefinite" keyTimes="0;0.3333333333333333;0.6666666666666666;1" keySplines="0.3 0.1 0.7 0.9;0.3 0.1 0.7 0.9;0.3 0.1 0.7 0.9" begin="-4s" values="M 1421 391 C 1421 577 1116 760 939 818 C 762 876 459 868 350 717 C 241 566 234 210 344 59 C 454 -92 770 -119 947 -61 C 1124 -3 1421 205 1421 391;M 1398 391 C 1398 551 1091 769 939 818 C 787 867 452 841 358 712 C 264 583 277 208 371 79 C 465 -50 780 -66 932 -17 C 1084 32 1398 231 1398 391;M 1353 391 C 1353 546 1064 703 917 751 C 770 799 508 794 417 669 C 326 544 332 241 423 116 C 514 -9 782 -53 929 -5 C 1076 43 1353 236 1353 391;M 1421 391 C 1421 577 1116 760 939 818 C 762 876 459 868 350 717 C 241 566 234 210 344 59 C 454 -92 770 -119 947 -61 C 1124 -3 1421 205 1421 391"/></path><path d="M1401 391c0 177-279 419-447 474s-460-34-564-177-105-453-1-596S785-136 953-81s448 295 448 472" fill="url(#a)" opacity=".4"><animate attributeName="d" dur="10s" repeatCount="indefinite" keyTimes="0;0.3333333333333333;0.6666666666666666;1" keySplines="0.3 0.1 0.7 0.9;0.3 0.1 0.7 0.9;0.3 0.1 0.7 0.9" begin="-4s" values="M 1401 391 C 1401 568 1122 810 954 865 C 786 920 494 831 390 688 C 286 545 285 235 389 92 C 493 -51 785 -136 953 -81 C 1121 -26 1401 214 1401 391;M 1366 391 C 1366 553 1105 804 951 854 C 797 904 521 793 426 662 C 331 531 261 199 356 68 C 451 -63 774 -53 928 -3 C 1082 47 1366 229 1366 391;M 1389 391 C 1389 568 1123 813 955 868 C 787 923 388 909 284 766 C 180 623 265 221 369 78 C 473 -65 773 -99 941 -44 C 1109 11 1389 214 1389 391;M 1401 391 C 1401 568 1122 810 954 865 C 786 920 494 831 390 688 C 286 545 285 235 389 92 C 493 -51 785 -136 953 -81 C 1121 -26 1401 214 1401 391"/></path><path d="M1486 391c0 186-346 448-522 505s-489-41-598-191-166-521-57-671S759-81 935-24s551 229 551 415" fill="url(#a)" opacity=".4"><animate attributeName="d" dur="10s" repeatCount="indefinite" keyTimes="0;0.3333333333333333;0.6666666666666666;1" keySplines="0.3 0.1 0.7 0.9;0.3 0.1 0.7 0.9;0.3 0.1 0.7 0.9" begin="-4s" values="M 1486 391 C 1486 577 1140 839 964 896 C 788 953 475 855 366 705 C 257 555 200 184 309 34 C 418 -116 759 -81 935 -24 C 1111 33 1486 205 1486 391;M 1382 391 C 1382 570 1113 773 943 829 C 773 885 366 927 261 782 C 156 637 273 229 378 84 C 483 -61 752 -41 922 14 C 1092 69 1382 212 1382 391;M 1300 391 C 1300 546 1087 771 939 819 C 791 867 481 815 390 689 C 299 563 311 227 402 101 C 493 -25 764 -1 912 47 C 1060 95 1300 236 1300 391;M 1486 391 C 1486 577 1140 839 964 896 C 788 953 475 855 366 705 C 257 555 200 184 309 34 C 418 -116 759 -81 935 -24 C 1111 33 1486 205 1486 391"/></path><path d="M1488 391c0 178-366 414-536 469s-574 57-679-87-74-599 31-743 475-154 645-99 539 282 539 460" fill="url(#a)" opacity=".4"><animate attributeName="d" dur="10s" repeatCount="indefinite" keyTimes="0;0.3333333333333333;0.6666666666666666;1" keySplines="0.3 0.1 0.7 0.9;0.3 0.1 0.7 0.9;0.3 0.1 0.7 0.9" begin="-4s" values="M 1488 391 C 1488 569 1122 805 952 860 C 782 915 378 917 273 773 C 168 629 199 174 304 30 C 409 -114 779 -124 949 -69 C 1119 -14 1488 213 1488 391;M 1471 391 C 1471 561 1098 756 936 809 C 774 862 504 817 404 679 C 304 541 201 166 301 28 C 401 -110 762 -44 924 8 C 1086 60 1471 221 1471 391;M 1422 391 C 1422 561 1109 795 948 847 C 787 899 457 849 357 712 C 257 575 304 240 404 103 C 504 -34 771 -69 932 -17 C 1093 35 1422 221 1422 391;M 1488 391 C 1488 569 1122 805 952 860 C 782 915 378 917 273 773 C 168 629 199 174 304 30 C 409 -114 779 -124 949 -69 C 1119 -14 1488 213 1488 391"/></path></svg>