<svg xmlns="http://www.w3.org/2000/svg" viewBox="0 0 5333.33 3000"><g fill-rule="evenodd" clip-rule="evenodd"><path fill="#900615" d="M0 0h5333.33v3000H0z"/><path d="M5333.33 0v3000H2622.92c-360.01-820.32-473.02-1821.35-285.97-2886.7 6.76-38.5 12.95-76.13 18.85-113.3h2977.53z" fill="#440006"/><path d="M5333.33 0v3000H2716.22C2294 2166.27 2142.1 1120.67 2322.82 0h3010.51z" fill="#f82015"/><path d="M5333.33 0v3000H3444.2c-477.93-771.84-710.19-1743.7-307.59-3000h2196.72z" fill="#770f06"/><path d="M5333.33 0v3000H3622.2c-549.9-760.49-879.08-1728.49-545.38-3000h2256.51z" fill="#fa9800"/><path d="M5333.33 0v2646.83c-416.22-91.23-872.74-337.26-1280.52-885.4-381.07-512.25-392.63-1128-239.13-1761.43h1519.65z" fill="#aa6700"/><path d="M5333.33 0v2375.23c-416.22-91.23-872.74-337.26-1280.52-885.4C3726.48 1051.16 3671.27 536.57 3758.45 0h1574.88z" fill="#00bfba"/></g></svg>